<svg width="24" height="24" fill="none" xmlns="http://www.w3.org/2000/svg"><path d="M15.602 3.846c-.873 1.008-2.268 1.802-3.664 1.689-.175-1.363.508-2.81 1.308-3.704C14.12.795 15.646.057 16.881 0c.146 1.42-.421 2.81-1.28 3.846zm1.265 1.958c-2.021-.113-3.752 1.122-4.711 1.122-.975 0-2.443-1.065-4.043-1.036-2.08.028-4.013 1.178-5.075 3.008-2.18 3.662-.567 9.083 1.542 12.064 1.032 1.475 2.268 3.093 3.897 3.037 1.541-.057 2.152-.98 4.013-.98 1.876 0 2.414.98 4.043.951 1.686-.028 2.748-1.476 3.78-2.952 1.178-1.674 1.658-3.306 1.687-3.392-.03-.028-3.257-1.234-3.286-4.868-.03-3.037 2.544-4.484 2.66-4.57-1.453-2.1-3.722-2.327-4.507-2.384z" fill="#fff"/></svg>