<svg width="24" height="24" fill="none" xmlns="http://www.w3.org/2000/svg"><path clip-rule="evenodd" d="M22.136 13.232l-3.619 2.138-3.441-3.577 3.077-3.387 3.983 2.353c.568.334.856.773.864 1.215v.027-.002c-.003.446-.291.892-.864 1.233zm-4.867-5.34L6.09 1.29c-.504-.298-.965-.358-1.326-.217l9.617 9.998 2.888-3.179zm-3.562 3.92l-9.602-9.98A2.27 2.27 0 004 2.548v.128c0-.088.004-.173.011-.254a2.824 2.824 0 00-.002.117V21.46c0 .335.056.623.157.854l9.541-10.502zM4.92 22.973c.335.076.741-.003 1.178-.262l11.535-6.817-3.23-3.358L4.92 22.972z"/></svg>