<svg width="24" height="24" fill="none" xmlns="http://www.w3.org/2000/svg"><path fill-rule="evenodd" clip-rule="evenodd" d="M23.786 17.488a.748.748 0 01-.007-.013l-.001-.002a1.782 1.782 0 01-.013-.024m0 0a1.782 1.782 0 00.021.039" fill="#101010"/><path d="M13.177 18.942s.433-.05.655-.293c.203-.224.196-.645.196-.645s-.027-1.967.866-2.258c.532-.172 1.156.559 1.83 1.35.442.517.906 1.061 1.38 1.394.907.636 1.595.497 1.595.497l3.206-.045s1.676-.106.881-1.454a.416.416 0 01-.008-.015l-.013-.024c-.114-.213-.59-1.098-2.362-2.78l-.055-.053c-.813-.77-1.237-1.173-1.282-1.617-.062-.62.618-1.322 2.017-3.229 1.474-2.009 2.064-3.235 1.88-3.76-.176-.502-1.26-.368-1.26-.368l-3.609.022s-.267-.037-.466.084c-.193.12-.319.396-.319.396s-.57 1.555-1.332 2.877c-1.607 2.79-2.25 2.937-2.512 2.765-.513-.34-.489-1.25-.467-2.046.004-.153.008-.303.008-.443 0-.622.021-1.161.04-1.625.06-1.553.09-2.273-.82-2.497-.393-.098-.682-.161-1.685-.172-1.288-.013-2.377.005-2.995.313-.41.206-.728.664-.534.69.238.033.778.15 1.065.548.37.515.357 1.67.357 1.67s.212 3.182-.497 3.577c-.486.271-1.153-.282-2.586-2.813-.734-1.296-1.288-2.73-1.288-2.73s-.106-.267-.298-.411a1.455 1.455 0 00-.554-.228l-3.429.023s-.515.014-.704.243c-.168.203-.013.624-.013.624s2.685 6.423 5.725 9.66c2.788 2.967 5.953 2.773 5.953 2.773h1.434z" fill="#101010"/></svg>