<svg xmlns="http://www.w3.org/2000/svg" xmlns:xlink="http://www.w3.org/1999/xlink"><symbol id="appstore" viewBox="0 0 24 24">
<path d="M15.6019 3.84601C14.7295 4.85364 13.3335 5.64839 11.9376 5.53485C11.7631 4.17243 12.4465 2.72485 13.2463 1.83076C14.1187 0.794748 15.6455 0.0567677 16.8815 0C17.0269 1.41919 16.4598 2.81 15.6019 3.84601ZM16.867 5.8045C14.8458 5.69096 13.1154 6.92566 12.1557 6.92566C11.1814 6.92566 9.71278 5.86127 8.11327 5.88965C6.03389 5.91803 4.09993 7.06758 3.03843 8.89834C0.857267 12.5599 2.47133 17.9812 4.57978 20.9615C5.6122 22.4374 6.84819 24.0553 8.47679 23.9985C10.0181 23.9418 10.6289 23.0193 12.4901 23.0193C14.3659 23.0193 14.904 23.9985 16.5326 23.9702C18.2193 23.9418 19.2808 22.4942 20.3132 21.0182C21.4911 19.3436 21.9709 17.7115 22 17.6264C21.9709 17.598 18.7428 16.3917 18.7137 12.7585C18.6846 9.72147 21.2584 8.27389 21.3747 8.18874C19.9206 6.08834 17.6522 5.86127 16.867 5.8045Z" fill="white"/>
</symbol><symbol id="googleplay" viewBox="0 0 24 24">
<path fill-rule="evenodd" clip-rule="evenodd" d="M22.1358 13.2316L18.5171 15.3703L15.076 11.7931L18.1534 8.40578L22.1358 10.7594C22.704 11.0927 22.9919 11.5322 22.9997 11.9741C22.9999 11.9829 23 11.9917 23 12.0005L22.9998 11.9989C22.997 12.4447 22.709 12.8911 22.1358 13.2316ZM17.269 7.89208L6.08996 1.28988C5.58648 0.99166 5.12464 0.931597 4.76373 1.07272L14.3812 11.0708L17.269 7.89208ZM13.7072 11.8126L4.10543 1.83083C4.03704 2.03587 4 2.27608 4 2.54803V2.67635C4 2.58824 4.00387 2.50346 4.01142 2.42212C4.00984 2.46035 4.00903 2.49922 4.00903 2.53873V21.4609C4.00903 21.7961 4.06494 22.0836 4.16636 22.3145L13.7072 11.8126ZM4.91969 22.9724C5.2553 23.0485 5.66115 22.9691 6.09843 22.7101L17.6327 15.8935L14.4021 12.5349L4.91969 22.9724Z" fill="white"/>
</symbol><symbol id="logo" viewBox="0 0 60 60">
<path fill-rule="evenodd" clip-rule="evenodd" d="M30 16.0001L46 27L37 44H33L31 40H29L27 44H23L14 27.0001L14 27H14.0002L30 16.0001L30 16L30 16.0001ZM30 16.0003L28 35.0001L24 27.0001H16L24 42H26L28 38H32L34 42H36L44 27H36L32 35L30 16.0003Z" fill="white"/>
<rect x="1" y="1" width="58" height="58" rx="29" stroke="white" stroke-width="2" fill="none"/>
</symbol></svg>