<svg xmlns="http://www.w3.org/2000/svg" xmlns:xlink="http://www.w3.org/1999/xlink"><symbol id="Instagram" viewBox="0 0 24 24">
<path d="M12.0064 2.98086C14.9472 2.98086 15.2955 2.99375 16.452 3.04531C17.5269 3.09258 18.1073 3.27305 18.4942 3.42344C19.0059 3.62109 19.3756 3.86172 19.7583 4.24414C20.1452 4.63086 20.3817 4.99609 20.5794 5.50742C20.7299 5.89414 20.9105 6.47852 20.9578 7.54844C21.0094 8.70859 21.0223 9.05664 21.0223 11.9914C21.0223 14.9305 21.0094 15.2785 20.9578 16.4344C20.9105 17.5086 20.7299 18.0887 20.5794 18.4754C20.3817 18.9867 20.1409 19.3563 19.7583 19.7387C19.3713 20.1254 19.0059 20.3617 18.4942 20.5594C18.1073 20.7098 17.5226 20.8902 16.452 20.9375C15.2912 20.9891 14.9429 21.002 12.0064 21.002C9.06566 21.002 8.71741 20.9891 7.56088 20.9375C6.48603 20.8902 5.90561 20.7098 5.51866 20.5594C5.00704 20.3617 4.63729 20.1211 4.25464 19.7387C3.8677 19.352 3.63123 18.9867 3.43346 18.4754C3.28298 18.0887 3.1024 17.5043 3.05511 16.4344C3.00352 15.2742 2.99062 14.9262 2.99062 11.9914C2.99062 9.05234 3.00352 8.7043 3.05511 7.54844C3.1024 6.47422 3.28298 5.89414 3.43346 5.50742C3.63123 4.99609 3.872 4.62656 4.25464 4.24414C4.64159 3.85742 5.00704 3.62109 5.51866 3.42344C5.90561 3.27305 6.49033 3.09258 7.56088 3.04531C8.71741 2.99375 9.06566 2.98086 12.0064 2.98086ZM12.0064 1C9.01837 1 8.64432 1.01289 7.47059 1.06445C6.30115 1.11602 5.49717 1.30508 4.80066 1.57578C4.07407 1.85937 3.45925 2.2332 2.84874 2.84766C2.23393 3.45781 1.85988 4.07227 1.57612 4.79414C1.30526 5.49453 1.11608 6.29375 1.06449 7.4625C1.0129 8.63984 1 9.01367 1 12C1 14.9863 1.0129 15.3602 1.06449 16.5332C1.11608 17.702 1.30526 18.5055 1.57612 19.2016C1.85988 19.9277 2.23393 20.5422 2.84874 21.1523C3.45925 21.7625 4.07407 22.1406 4.79637 22.4199C5.49717 22.6906 6.29685 22.8797 7.46629 22.9312C8.64002 22.9828 9.01407 22.9957 12.0021 22.9957C14.9902 22.9957 15.3643 22.9828 16.538 22.9312C17.7074 22.8797 18.5114 22.6906 19.2079 22.4199C19.9302 22.1406 20.545 21.7625 21.1556 21.1523C21.7661 20.5422 22.1444 19.9277 22.4239 19.2059C22.6947 18.5055 22.8839 17.7063 22.9355 16.5375C22.9871 15.3645 23 14.9906 23 12.0043C23 9.01797 22.9871 8.64414 22.9355 7.47109C22.8839 6.30234 22.6947 5.49883 22.4239 4.80273C22.153 4.07227 21.779 3.45781 21.1642 2.84766C20.5536 2.2375 19.9388 1.85938 19.2165 1.58008C18.5157 1.30937 17.716 1.12031 16.5466 1.06875C15.3686 1.01289 14.9945 1 12.0064 1Z" fill="#101010"/>
<path d="M12.0064 6.34961C8.88509 6.34961 6.35275 8.88047 6.35275 12C6.35275 15.1195 8.88509 17.6504 12.0064 17.6504C15.1278 17.6504 17.6602 15.1195 17.6602 12C17.6602 8.88047 15.1278 6.34961 12.0064 6.34961ZM12.0064 15.6652C9.98143 15.6652 8.33907 14.0238 8.33907 12C8.33907 9.97617 9.98143 8.33477 12.0064 8.33477C14.0315 8.33477 15.6738 9.97617 15.6738 12C15.6738 14.0238 14.0315 15.6652 12.0064 15.6652Z" fill="#101010"/>
<path d="M19.2036 6.12591C19.2036 6.85638 18.6103 7.44505 17.8837 7.44505C17.1528 7.44505 16.5638 6.85209 16.5638 6.12591C16.5638 5.39544 17.1571 4.80677 17.8837 4.80677C18.6103 4.80677 19.2036 5.39974 19.2036 6.12591Z" fill="#101010"/>
</symbol><symbol id="VK" viewBox="0 0 24 24">
<path fill-rule="evenodd" clip-rule="evenodd" d="M23.7862 17.488C23.7841 17.4844 23.7816 17.4801 23.7787 17.4749L23.7776 17.4727C23.7739 17.466 23.7696 17.4581 23.7647 17.4489M23.7647 17.4489C23.7696 17.4581 23.7739 17.466 23.7776 17.4727C23.7809 17.4789 23.7838 17.4839 23.7862 17.488" fill="#101010"/>
<path d="M13.177 18.9415C13.177 18.9415 13.6101 18.8923 13.832 18.6486C14.0351 18.4254 14.028 18.0041 14.028 18.0041C14.028 18.0041 14.001 16.0369 14.8943 15.7464C15.4263 15.5738 16.0497 16.3045 16.7244 17.0955C17.1662 17.6135 17.6301 18.1573 18.1048 18.4902C19.011 19.1263 19.6989 18.9871 19.6989 18.9871L22.9046 18.9415C22.9046 18.9415 24.5809 18.8359 23.7862 17.488C23.7838 17.4839 23.7809 17.4789 23.7776 17.4727L23.7647 17.4489C23.6506 17.2362 23.1755 16.3511 21.4033 14.6686L21.3478 14.616C20.535 13.8453 20.1109 13.4431 20.0663 12.9995C20.0038 12.3787 20.6844 11.6768 22.0829 9.77039C23.5573 7.76117 24.1465 6.53452 23.9622 6.01001C23.7873 5.50831 22.7027 5.64154 22.7027 5.64154L19.0943 5.66434C19.0943 5.66434 18.8267 5.62713 18.6283 5.74836C18.4346 5.86718 18.309 6.14444 18.309 6.14444C18.309 6.14444 17.7385 7.69876 16.9767 9.02143C15.3697 11.8108 14.7276 11.9584 14.4647 11.7856C13.952 11.4465 13.9764 10.5355 13.9976 9.73992C14.0017 9.58651 14.0057 9.43739 14.0057 9.29749C14.0057 8.67494 14.027 8.13598 14.0453 7.67156C14.1066 6.11868 14.1351 5.39915 13.2251 5.17464C12.8331 5.07742 12.5443 5.01381 11.5407 5.003C10.253 4.9898 9.16364 5.0078 8.54619 5.31627C8.13535 5.52151 7.81841 5.98 8.0121 6.00641C8.25039 6.03882 8.79035 6.15524 9.07677 6.55372C9.44653 7.06863 9.43362 8.22327 9.43362 8.22327C9.43362 8.22327 9.64608 11.4063 8.93708 11.8012C8.45111 12.0725 7.78437 11.5192 6.35111 8.98783C5.61746 7.69156 5.06341 6.25846 5.06341 6.25846C5.06341 6.25846 4.95659 5.99081 4.76525 5.84678C4.53401 5.67274 4.2112 5.61873 4.2112 5.61873L0.782411 5.64154C0.782411 5.64154 0.267094 5.65594 0.0781053 5.88519C-0.0897537 6.08803 0.0651931 6.50931 0.0651931 6.50931C0.0651931 6.50931 2.74977 12.9318 5.79002 16.1689C8.57789 19.1359 11.7426 18.9415 11.7426 18.9415H13.177Z" fill="#101010"/>
</symbol><symbol id="appstore" viewBox="0 0 24 24">
<path d="M15.6019 3.84601C14.7295 4.85364 13.3335 5.64839 11.9376 5.53485C11.7631 4.17243 12.4465 2.72485 13.2463 1.83076C14.1187 0.794748 15.6455 0.0567677 16.8815 0C17.0269 1.41919 16.4598 2.81 15.6019 3.84601ZM16.867 5.8045C14.8458 5.69096 13.1154 6.92566 12.1557 6.92566C11.1814 6.92566 9.71278 5.86127 8.11327 5.88965C6.03389 5.91803 4.09993 7.06758 3.03843 8.89834C0.857267 12.5599 2.47133 17.9812 4.57978 20.9615C5.6122 22.4374 6.84819 24.0553 8.47679 23.9985C10.0181 23.9418 10.6289 23.0193 12.4901 23.0193C14.3659 23.0193 14.904 23.9985 16.5326 23.9702C18.2193 23.9418 19.2808 22.4942 20.3132 21.0182C21.4911 19.3436 21.9709 17.7115 22 17.6264C21.9709 17.598 18.7428 16.3917 18.7137 12.7585C18.6846 9.72147 21.2584 8.27389 21.3747 8.18874C19.9206 6.08834 17.6522 5.86127 16.867 5.8045Z" fill="white"/>
</symbol><symbol id="dark-logo" viewBox="0 0 64 64">
<path fill-rule="evenodd" clip-rule="evenodd" d="M32 18.0001L48 29L39 46H35L33 42H31L29 46H25L16 29.0001L16 29H16.0002L32 18.0001L32 18L32 18.0001ZM32 18.0003L30 37.0001L26 29.0001H18L26 44H28L30 40H34L36 44H38L46 29H38L34 37L32 18.0003Z" fill="#101010"/>
<rect x="1" y="1" width="62" height="62" rx="31" stroke="#101010" fill="none" stroke-width="2"/>
</symbol><symbol id="facebook" viewBox="0 0 24 24">
<path d="M23 12C23 5.92486 18.0751 1 12 1C5.92486 1 1 5.92486 1 12C1 17.4903 5.02252 22.0412 10.2812 22.8664V15.1797H7.48828V12H10.2812V9.57656C10.2812 6.81969 11.9235 5.29688 14.4361 5.29688C15.6392 5.29688 16.8984 5.51172 16.8984 5.51172V8.21875H15.5114C14.145 8.21875 13.7188 9.06674 13.7188 9.9375V12H16.7695L16.2818 15.1797H13.7188V22.8664C18.9775 22.0412 23 17.4903 23 12Z" fill="#101010"/>
</symbol><symbol id="googleplay" viewBox="0 0 24 24">
<path fill-rule="evenodd" clip-rule="evenodd" d="M22.1358 13.2316L18.5171 15.3703L15.076 11.7931L18.1534 8.40578L22.1358 10.7594C22.704 11.0927 22.9919 11.5322 22.9997 11.9741C22.9999 11.9829 23 11.9917 23 12.0005L22.9998 11.9989C22.997 12.4447 22.709 12.8911 22.1358 13.2316ZM17.269 7.89208L6.08996 1.28988C5.58648 0.99166 5.12464 0.931597 4.76373 1.07272L14.3812 11.0708L17.269 7.89208ZM13.7072 11.8126L4.10543 1.83083C4.03704 2.03587 4 2.27608 4 2.54803V2.67635C4 2.58824 4.00387 2.50346 4.01142 2.42212C4.00984 2.46035 4.00903 2.49922 4.00903 2.53873V21.4609C4.00903 21.7961 4.06494 22.0836 4.16636 22.3145L13.7072 11.8126ZM4.91969 22.9724C5.2553 23.0485 5.66115 22.9691 6.09843 22.7101L17.6327 15.8935L14.4021 12.5349L4.91969 22.9724Z"/>
</symbol><symbol id="logo" viewBox="0 0 60 60">
<path fill-rule="evenodd" clip-rule="evenodd" d="M30 16.0001L46 27L37 44H33L31 40H29L27 44H23L14 27.0001L14 27H14.0002L30 16.0001L30 16L30 16.0001ZM30 16.0003L28 35.0001L24 27.0001H16L24 42H26L28 38H32L34 42H36L44 27H36L32 35L30 16.0003Z" fill="white"/>
<rect x="1" y="1" width="58" height="58" rx="29" stroke="white" stroke-width="2" fill="none"/>
</symbol></svg>